<?xml version="1.0" encoding="UTF-8" standalone="no"?>
<!-- Created with Inkscape (http://www.inkscape.org/) -->

<svg
   xmlns:dc="http://purl.org/dc/elements/1.1/"
   xmlns:cc="http://creativecommons.org/ns#"
   xmlns:rdf="http://www.w3.org/1999/02/22-rdf-syntax-ns#"
   xmlns:svg="http://www.w3.org/2000/svg"
   xmlns="http://www.w3.org/2000/svg"
   xmlns:sodipodi="http://sodipodi.sourceforge.net/DTD/sodipodi-0.dtd"
   xmlns:inkscape="http://www.inkscape.org/namespaces/inkscape"
   version="1.1"
   width="319.276"
   height="279.61874"
   id="svg2"
   xml:space="preserve"
   inkscape:version="0.48.4 r9939"
   sodipodi:docname="AJAX1.svg"><sodipodi:namedview
     pagecolor="#ffffff"
     bordercolor="#666666"
     borderopacity="1"
     objecttolerance="10"
     gridtolerance="10"
     guidetolerance="10"
     inkscape:pageopacity="0"
     inkscape:pageshadow="2"
     inkscape:window-width="1280"
     inkscape:window-height="1004"
     id="namedview9"
     showgrid="false"
     fit-margin-top="0.2"
     fit-margin-left="0.2"
     fit-margin-right="0.2"
     fit-margin-bottom="0.2"
     inkscape:zoom="2.0062924"
     inkscape:cx="143.79701"
     inkscape:cy="126.78437"
     inkscape:window-x="-8"
     inkscape:window-y="-8"
     inkscape:window-maximized="1"
     inkscape:current-layer="svg2"
     showguides="true"
     inkscape:guide-bbox="true" /><defs
     id="defs52" /><metadata
     id="metadata4"><rdf:RDF><cc:Work
         rdf:about=""><dc:format>image/svg+xml</dc:format><dc:type
           rdf:resource="http://purl.org/dc/dcmitype/StillImage" /><dc:title /></cc:Work></rdf:RDF></metadata><path
     style="fill:#cd1e00;fill-opacity:1;fill-rule:nonzero;stroke:none"
     d="m 159.638,0.2 c 3.75736,1.3e-4 7.51377,1.87636 9.71878,5.65625 l 148.18797,256.81249 c 1.08125,1.71125 1.53125,3.61374 1.53125,5.59375 0,6.12 -4.94627,11.15625 -11.15629,11.15625 l -296.56343,0 C 5.14627,279.41874 0.2,274.38249 0.2,268.26249 c 0,-1.98001 0.45,-3.8825 1.53125,-5.59375 L 149.91922,5.85625 C 152.12423,2.07636 155.88064,0.20013 159.638,0.2 z"
     id="path11"
     inkscape:connector-curvature="0"
     sodipodi:nodetypes="cccssssccc" /><path
     inkscape:connector-curvature="0"
     style="fill:#ffffff;fill-opacity:1;fill-rule:nonzero;stroke:none"
     d="m 159.638,56.12835 109.574,189.71997 -219.147496,0 z"
     id="path13"
     sodipodi:nodetypes="cccc" /><path
     style="fill:#000000;fill-rule:nonzero;stroke:none"
     d="m 159.6385,90.067394 c -7.37979,0 -13.32086,6.22007 -12.78088,13.780856 l 4.93735,92.96609 c 0.26999,2.06869 1.01997,3.84364 2.28119,5.37484 1.4387,1.52996 3.58364,2.53118 5.56234,2.53118 1.97869,0 4.12363,-1.00122 5.56234,-2.53118 1.26121,-1.5312 2.01119,-3.30615 2.28118,-5.37484 l 4.93736,-92.96609 c 0.53998,-7.560786 -5.4011,-13.780856 -12.78088,-13.780856 z"
     id="path17"
     inkscape:connector-curvature="0" /><path
     sodipodi:nodetypes="sssss"
     style="fill:#000000;fill-opacity:1;stroke:none"
     d="m 172.5535,226.09574 c 0,7.13276 -5.78223,12.915 -12.91499,12.915 -7.13277,0 -12.91501,-5.78224 -12.91501,-12.915 0,-7.13276 5.78224,-12.91499 12.91501,-12.91499 7.13276,0 12.91499,5.78223 12.91499,12.91499 z"
     id="path4177"
     inkscape:connector-curvature="0" /></svg>